<svg height="512pt" viewBox="-7 0 512 512" width="512pt" xmlns="http://www.w3.org/2000/svg"><path d="m490.929688 95.671875c0 48.695313-39.476563 88.171875-88.171876 88.171875-48.695312 0-88.171874-39.476562-88.171874-88.171875s39.476562-88.171875 88.171874-88.171875c48.695313 0 88.171876 39.476562 88.171876 88.171875zm0 0" fill="#eeeeed"/><path d="m431.25 150.640625c-46.09375 0-83.460938-37.367187-83.460938-83.460937 0-19.429688 6.660157-37.292969 17.796876-51.476563-30.121094 14.023437-51 44.554687-51 79.96875 0 48.695313 39.476562 88.171875 88.171874 88.171875 35.414063 0 65.945313-20.878906 79.96875-51-14.183593 11.136719-32.046874 17.796875-51.476562 17.796875zm0 0" fill="#dfdfdd"/><path d="m463.195312 95.671875c0 33.378906-27.058593 60.4375-60.4375 60.4375-33.378906 0-60.4375-27.058594-60.4375-60.4375s27.058594-60.4375 60.4375-60.4375c33.378907 0 60.4375 27.058594 60.4375 60.4375zm0 0" fill="#7bd0a7"/><path d="m431.105469 95.671875c0 15.65625-12.691407 28.347656-28.347657 28.347656s-28.347656-12.691406-28.347656-28.347656 12.691406-28.347656 28.347656-28.347656 28.347657 12.691406 28.347657 28.347656zm0 0" fill="#70bd98"/><path d="m490.929688 416.328125c0 48.695313-39.476563 88.171875-88.171876 88.171875-48.695312 0-88.171874-39.476562-88.171874-88.171875s39.476562-88.171875 88.171874-88.171875c48.695313 0 88.171876 39.476562 88.171876 88.171875zm0 0" fill="#eeeeed"/><path d="m347.792969 387.835938c0 46.09375 37.363281 83.457031 83.457031 83.457031 19.429688 0 37.296875-6.65625 51.476562-17.792969-14.023437 30.117188-44.554687 51-79.96875 51-48.695312 0-88.171874-39.476562-88.171874-88.171875 0-35.414063 20.882812-65.945313 51-79.96875-11.136719 14.179687-17.792969 32.046875-17.792969 51.476563zm0 0" fill="#dfdfdd"/><path d="m463.195312 416.328125c0 33.378906-27.058593 60.4375-60.4375 60.4375-33.378906 0-60.4375-27.058594-60.4375-60.4375s27.058594-60.4375 60.4375-60.4375c33.378907 0 60.4375 27.058594 60.4375 60.4375zm0 0" fill="#eb8d9a"/><path d="m431.105469 416.328125c0 15.65625-12.691407 28.347656-28.347657 28.347656s-28.347656-12.691406-28.347656-28.347656 12.691406-28.347656 28.347656-28.347656 28.347657 12.691406 28.347657 28.347656zm0 0" fill="#d67c88"/><path d="m242.625 256c0 64.929688-52.632812 117.5625-117.5625 117.5625s-117.5625-52.632812-117.5625-117.5625 52.632812-117.5625 117.5625-117.5625 117.5625 52.632812 117.5625 117.5625zm0 0" fill="#eeeeed"/><path d="m163.050781 329.289062c-61.457031 0-111.277343-49.820312-111.277343-111.277343 0-25.90625 8.878906-49.726563 23.726562-68.636719-40.15625 18.699219-68 59.40625-68 106.625 0 64.929688 52.636719 117.5625 117.5625 117.5625 47.21875 0 87.925781-27.839844 106.625-68-18.910156 14.847656-42.730469 23.726562-68.636719 23.726562zm0 0" fill="#dfdfdd"/><path d="m215.824219 256c0 50.128906-40.632813 90.765625-90.761719 90.765625s-90.765625-40.636719-90.765625-90.765625 40.636719-90.765625 90.765625-90.765625 90.761719 40.636719 90.761719 90.765625zm0 0" fill="#7397da"/><path d="m170.878906 256c0 25.304688-20.511718 45.816406-45.816406 45.816406s-45.816406-20.511718-45.816406-45.816406 20.511718-45.816406 45.816406-45.816406 45.816406 20.511718 45.816406 45.816406zm0 0" fill="#6988c4"/><path d="m402.757812 163.609375c37.460938 0 67.9375-30.476563 67.9375-67.9375s-30.476562-67.9375-67.9375-67.9375c-37.460937 0-67.9375 30.476563-67.9375 67.9375s30.476563 67.9375 67.9375 67.9375zm0-120.875c29.1875 0 52.9375 23.75 52.9375 52.9375s-23.75 52.9375-52.9375 52.9375c-29.191406 0-52.9375-23.746094-52.9375-52.9375 0-29.1875 23.746094-52.9375 52.9375-52.9375zm-375.960937 213.265625c0 54.183594 44.082031 98.265625 98.265625 98.265625s98.265625-44.082031 98.265625-98.265625-44.082031-98.265625-98.265625-98.265625-98.265625 44.082031-98.265625 98.265625zm181.527344 0c0 45.910156-37.351563 83.265625-83.261719 83.265625-45.914062 0-83.265625-37.351563-83.265625-83.265625s37.351563-83.265625 83.265625-83.265625 83.261719 37.355469 83.261719 83.265625zm194.433593 64.65625c-32.660156 0-61.546874 16.453125-78.816406 41.503906l-87.035156-50.246094c8.453125-16.835937 13.21875-35.828124 13.21875-55.914062 0-19.734375-4.601562-38.8125-13.171875-55.941406l86.988281-50.21875c17.269532 25.050781 46.15625 41.503906 78.816406 41.503906 52.753907 0 95.671876-42.917969 95.671876-95.671875s-42.917969-95.671875-95.671876-95.671875c-52.753906 0-95.671874 42.917969-95.671874 95.671875 0 14.738281 3.351562 28.707031 9.328124 41.191406l-86.964843 50.207031c-6.882813-10.402343-15.375-19.84375-25.308594-27.960937-3.207031-2.625-7.933594-2.144531-10.550781 1.0625-2.621094 3.207031-2.148438 7.933594 1.0625 10.554687 10.417968 8.511719 19.039062 18.679688 25.605468 29.96875.046876.085938.085938.179688.136719.265626.03125.054687.074219.101562.105469.15625 9.488281 16.476562 14.625 35.316406 14.625 54.886718 0 60.6875-49.375 110.0625-110.0625 110.0625s-110.0625-49.375-110.0625-110.0625c0-60.691406 49.371094-110.066406 110.0625-110.066406 14.246094 0 28.109375 2.683594 41.195312 7.96875 3.84375 1.554688 8.210938-.304688 9.761719-4.144531 1.554688-3.839844-.304687-8.210938-4.144531-9.765625-14.878906-6.007813-30.628906-9.058594-46.8125-9.058594-68.960938 0-125.0625 56.101562-125.0625 125.0625s56.101562 125.0625 125.0625 125.0625c43.523438 0 81.914062-22.351562 104.324219-56.171875l87.03125 50.25c-5.980469 12.480469-9.332031 26.449219-9.332031 41.1875 0 18 5.027343 35.539063 14.542968 50.726563 2.195313 3.511718 6.824219 4.574218 10.335938 2.375 3.511718-2.199219 4.574218-6.828126 2.375-10.335938-8.015625-12.796875-12.253906-27.585938-12.253906-42.765625 0-44.480469 36.191406-80.671875 80.671874-80.671875 44.484376 0 80.671876 36.1875 80.671876 80.671875s-36.1875 80.671875-80.671876 80.671875c-16.691406 0-32.707031-5.050781-46.3125-14.605469-3.386718-2.382812-8.066406-1.566406-10.449218 1.824219-2.378906 3.390625-1.5625 8.066406 1.828125 10.449219 16.144531 11.339843 35.140625 17.332031 54.933593 17.332031 52.753907 0 95.671876-42.917969 95.671876-95.671875s-42.917969-95.671875-95.671876-95.671875zm0-305.65625c44.480469 0 80.671876 36.1875 80.671876 80.671875s-36.1875 80.671875-80.671876 80.671875c-44.484374 0-80.671874-36.1875-80.671874-80.671875s36.1875-80.671875 80.671874-80.671875zm0 469.265625c37.460938 0 67.9375-30.476563 67.9375-67.9375s-30.476562-67.9375-67.9375-67.9375c-37.460937 0-67.9375 30.476563-67.9375 67.9375s30.476563 67.9375 67.9375 67.9375zm0-120.875c29.1875 0 52.9375 23.746094 52.9375 52.9375 0 29.1875-23.75 52.9375-52.9375 52.9375-29.191406 0-52.9375-23.75-52.9375-52.9375 0-29.191406 23.746094-52.9375 52.9375-52.9375zm0 0"/></svg>